<svg width="24" height="24" viewBox="0 0 24 24" fill="none" xmlns="http://www.w3.org/2000/svg">
<g clip-path="url(#clip0_3_389)">
<path d="M3.72174 3.18172C3.42373 3.18303 3.18255 3.42421 3.18124 3.72222L3.18124 3.72227C3.18086 3.81383 3.17761 5.88117 3.68058 8.48588L3.68058 8.4859C4.36136 12.0092 5.59798 14.7032 7.36999 16.4752C9.142 18.2472 11.8359 19.4838 15.3595 20.1644C17.9622 20.6671 20.0287 20.6642 20.1232 20.6637M3.72174 3.18172L3.7224 3.33172L3.72156 3.18172C3.72162 3.18172 3.72168 3.18172 3.72174 3.18172ZM3.72174 3.18172C3.81621 3.18121 5.88267 3.17844 8.4854 3.68107L8.45696 3.82835L8.4854 3.68107C12.009 4.36164 14.7029 5.59822 16.4749 7.37024C18.247 9.14225 19.4836 11.8362 20.1643 15.3595L20.1644 15.3595C20.6673 17.9643 20.6641 20.0316 20.6637 20.1232L20.6637 20.1232C20.6624 20.4212 20.4212 20.6624 20.1232 20.6637M20.1232 20.6637L20.1225 20.5143L20.1234 20.6637C20.1233 20.6637 20.1233 20.6637 20.1232 20.6637ZM19.0949 15.5505C19.3493 16.875 19.5058 18.2164 19.5633 19.5636C18.216 19.5062 16.8748 19.3495 15.5503 19.0952C13.2585 18.6509 10.1319 17.701 8.13802 15.7072C6.14411 13.7133 5.19417 10.5864 4.74996 8.29474C4.49564 6.97031 4.3392 5.62915 4.28175 4.28199C5.62894 4.33946 6.97025 4.49601 8.29472 4.75034C10.5864 5.1945 13.7127 6.14432 15.7069 8.13851C17.6903 10.1219 18.6406 13.2252 19.0878 15.5135L19.0949 15.5505Z" fill="#0055B8" stroke="#0055B8" stroke-width="0.3"/>
<path d="M9.83673 7.76967L9.82266 7.7556C9.7428 7.80066 9.65213 7.82514 9.55891 7.82577L9.55858 7.82578C9.41363 7.82643 9.27443 7.76928 9.17183 7.66667C9.06929 7.56413 9.01191 7.4248 9.01273 7.27976L9.01273 7.27976C9.01354 7.13485 9.07213 6.99654 9.17545 6.89517M9.83673 7.76967L9.28097 7.00178M9.83673 7.76967L9.93674 7.66966M9.83673 7.76967L9.93674 7.66966M9.17545 6.89517C9.17566 6.89496 9.17588 6.89475 9.17609 6.89454L9.28097 7.00178M9.17545 6.89517L9.1749 6.89571L9.28097 7.00178M9.17545 6.89517L10.0085 6.06208L10.0097 6.06093L10.0097 6.06093C10.2224 5.85282 10.563 5.85459 10.7735 6.06504C10.9839 6.27549 10.9857 6.61612 10.7776 6.82881L10.7764 6.82998L10.7764 6.82997L9.94279 7.6636L9.94264 7.66376M9.28097 7.00178L10.1146 6.16815C10.2686 6.0175 10.5151 6.0188 10.6674 6.1711C10.8197 6.32341 10.821 6.56995 10.6704 6.7239L9.94279 7.45147L9.83673 7.55754L9.94396 7.6624C9.94357 7.6628 9.94318 7.6632 9.94279 7.6636C9.94274 7.66365 9.94269 7.66371 9.94264 7.66376M9.94264 7.66376C9.94068 7.66574 9.93872 7.66771 9.93674 7.66966M9.94264 7.66376L9.93674 7.66966" fill="#0055B8" stroke="#0055B8" stroke-width="0.3"/>
<path d="M10.8446 8.0072L10.8446 8.0072L11.6778 7.17404L11.6783 7.17358L11.7843 7.27964C11.8579 7.20467 11.9582 7.1621 12.0633 7.16151L10.8446 8.0072ZM10.8446 8.0072L10.8435 8.00836C10.6353 8.22111 10.6373 8.56186 10.8477 8.77225C11.0582 8.98271 11.3988 8.98447 11.6115 8.77636L11.6115 8.77636L11.6126 8.77521L12.4457 7.94212M10.8446 8.0072L12.0624 7.01152C12.2075 7.0107 12.3468 7.06808 12.4494 7.17062C12.5518 7.27308 12.6091 7.41239 12.6085 7.55736L12.6085 7.5577C12.6075 7.70223 12.5492 7.84065 12.4457 7.94212M12.4457 7.94212C12.4455 7.94233 12.4453 7.94254 12.4451 7.94275L12.3402 7.83551M12.4457 7.94212L12.4463 7.94158L12.3402 7.83551M12.3402 7.83551L11.5066 8.66914L12.4585 7.55669C12.4578 7.66169 12.4153 7.76208 12.3402 7.83551Z" fill="#0055B8" stroke="#0055B8" stroke-width="0.3"/>
<path d="M13.173 9.76804C13.0291 9.76802 12.891 9.71103 12.789 9.60906L13.173 9.76804ZM13.173 9.76804C13.317 9.76818 13.4552 9.71098 13.557 9.60917L14.3903 8.77589L13.173 9.76804ZM13.6222 8.00796L12.789 8.84117C12.5769 9.05326 12.5771 9.39714 12.789 9.60905L13.6222 8.00796Z" fill="#0055B8" stroke="#0055B8" stroke-width="0.3"/>
<path d="M13.1846 11.448L13.1846 11.448C13.1856 11.3035 13.2439 11.1651 13.3473 11.0636M13.1846 11.448L13.4528 11.1702M13.1846 11.448L13.1846 11.4484C13.1839 11.5934 13.2412 11.7327 13.3437 11.8351C13.4462 11.9377 13.5856 11.9951 13.7306 11.9942L13.1846 11.448ZM13.3473 11.0636C13.3475 11.0634 13.3478 11.0632 13.348 11.063L13.4528 11.1702M13.3473 11.0636L13.3468 11.0642L13.4528 11.1702M13.3473 11.0636L15.0136 9.39733M13.4528 11.1702L15.1202 9.50285M15.0136 9.39733C15.0134 9.39755 15.0132 9.39776 15.013 9.39798L15.1202 9.50285M15.0136 9.39733L15.0142 9.39678L15.1202 9.50285M15.0136 9.39733C15.1149 9.29407 15.2535 9.23554 15.3981 9.23472L15.1202 9.50285" fill="#0055B8" stroke="#0055B8" stroke-width="0.3"/>
<path d="M16.6136 12.111C16.7169 12.0096 16.7755 11.8713 16.7763 11.7264V11.7264C16.7771 11.5813 16.7198 11.442 16.6172 11.3394C16.5146 11.2368 16.3754 11.1797 16.2305 11.1803L16.2305 11.1803L16.2301 11.1803C16.1369 11.181 16.0462 11.2055 15.9664 11.2505L15.9523 11.2365L15.8524 11.3364C15.8503 11.3384 15.8483 11.3404 15.8463 11.3424L15.8462 11.3425L15.0126 12.1762L15.0126 12.1761L15.0115 12.1773C14.8034 12.39 14.8051 12.7306 15.0156 12.9411C15.226 13.1515 15.5667 13.1533 15.7793 12.9452L15.7794 12.9452L15.7805 12.944L16.6136 12.111ZM16.6136 12.111C16.6134 12.1112 16.6132 12.1114 16.6129 12.1116L16.5081 12.0043M16.6136 12.111L16.6141 12.1104L16.5081 12.0043M16.5081 12.0043L15.6744 12.838L16.6263 11.7255C16.6257 11.8306 16.5832 11.9309 16.5081 12.0043Z" fill="#0055B8" stroke="#0055B8" stroke-width="0.3"/>
<path d="M16.5071 14.623C16.4021 14.6235 16.3014 14.5821 16.2271 14.5079C16.1529 14.4336 16.1114 14.3328 16.1119 14.2279C16.1125 14.1227 16.1551 14.0225 16.2302 13.949M16.5071 14.623L17.1699 13.0093L17.1699 13.0093L17.0638 13.1154L17.0638 13.1154L16.9578 13.0093L16.8517 13.1154M16.5071 14.623C16.6121 14.6223 16.7125 14.5799 16.7859 14.5048M16.5071 14.623L16.7859 14.5048M16.2302 13.949L16.9578 13.2215L16.9577 13.2215L16.8517 13.1154M16.2302 13.949L16.1241 13.843L16.1247 13.8424L16.8517 13.1154M16.2302 13.949L16.8517 13.1154M16.8517 13.1154L16.8505 13.1142L16.9589 13.0082C17.1716 12.8001 17.5122 12.8018 17.7227 13.0123C17.9331 13.2228 17.9349 13.5634 17.7268 13.7761L17.7256 13.7772L17.7256 13.7772L16.8926 14.6103M16.8517 13.1154L16.8926 14.6103M16.8926 14.6103L16.892 14.6109L16.7859 14.5048M16.8926 14.6103C16.8928 14.6101 16.893 14.6099 16.8932 14.6097L16.7859 14.5048" fill="#0055B8" stroke="#0055B8" stroke-width="0.3"/>
</g>
<defs>
<clipPath id="clip0_3_389">
<rect width="24" height="24" fill="white"/>
</clipPath>
</defs>
</svg>
