<svg width="25" height="25" viewBox="0 0 25 25" fill="none" xmlns="http://www.w3.org/2000/svg">
<path d="M17.558 24.1273C17.8189 24.1252 18.0734 24.0464 18.2898 23.9007C18.5063 23.7551 18.6751 23.549 18.7753 23.3081C18.8755 23.0672 18.9026 22.8022 18.8533 22.546C18.804 22.2898 18.6804 22.0538 18.498 21.8673L9.188 12.5573L18.498 3.25729C18.746 3.00931 18.8853 2.67298 18.8853 2.32229C18.8853 1.9716 18.746 1.63527 18.498 1.38729C18.25 1.13931 17.9137 1 17.563 1C17.2123 1 16.876 1.13931 16.628 1.38729L6.388 11.6273C6.26494 11.7499 6.1673 11.8956 6.10067 12.0561C6.03405 12.2165 5.99976 12.3886 5.99976 12.5623C5.99976 12.736 6.03405 12.908 6.10067 13.0685C6.1673 13.2289 6.26494 13.3747 6.388 13.4973L16.628 23.7373C16.8742 23.9853 17.2086 24.1255 17.558 24.1273Z" fill="#7B7B7B"/>
</svg>
