<svg width="25" height="25" viewBox="0 0 25 25" fill="none" xmlns="http://www.w3.org/2000/svg">
<path d="M7.32702 1.00003C7.06614 1.00214 6.81164 1.08092 6.5952 1.22658C6.37876 1.37224 6.20994 1.57834 6.10975 1.81922C6.00956 2.0601 5.98242 2.32513 6.03172 2.58132C6.08103 2.8375 6.20458 3.07354 6.38701 3.26003L15.697 12.57L6.38701 21.87C6.13904 22.118 5.99972 22.4543 5.99972 22.805C5.99972 23.1557 6.13904 23.4921 6.38701 23.74C6.63499 23.988 6.97132 24.1273 7.32201 24.1273C7.6727 24.1273 8.00904 23.988 8.25701 23.74L18.497 13.5C18.6201 13.3774 18.7177 13.2317 18.7843 13.0712C18.851 12.9108 18.8853 12.7388 18.8853 12.565C18.8853 12.3913 18.851 12.2193 18.7843 12.0588C18.7177 11.8984 18.6201 11.7527 18.497 11.63L8.25702 1.39003C8.01085 1.14207 7.67641 1.00182 7.32702 1.00003V1.00003Z" fill="#7B7B7B"/>
</svg>
