<svg width="20" height="20" viewBox="0 0 20 20" fill="none" xmlns="http://www.w3.org/2000/svg">
<path d="M9.69429 0.601929C4.3913 0.601929 0.0922852 4.90095 0.0922852 10.2039C0.0922852 14.9601 3.55399 18.899 8.09286 19.6617V12.2072H5.77658V9.52458H8.09286V7.54654C8.09286 5.25145 9.49464 4.00075 11.5423 4.00075C12.523 4.00075 13.3658 4.07383 13.6105 4.10602V6.505L12.1903 6.50569C11.0769 6.50569 10.8623 7.03465 10.8623 7.81113V9.5232H13.5189L13.1724 12.2058H10.8623V19.7259C15.6131 19.1477 19.2962 15.1084 19.2962 10.2012C19.2962 4.90095 14.9972 0.601929 9.69429 0.601929Z" fill="#0055B8"/>
</svg>
