<svg width="200" height="135" viewBox="0 0 200 135" fill="none" xmlns="http://www.w3.org/2000/svg">
<rect width="199.921" height="134.412" rx="7.28261" fill="#0055B8"/>
<path d="M140.472 96.4159C138.266 91.2284 135.066 86.5164 131.048 82.5424C127.043 78.5569 122.299 75.3793 117.077 73.1851C117.03 73.1619 116.983 73.1503 116.937 73.127C124.22 67.9027 128.956 59.3929 128.956 49.7918C128.956 33.8866 115.978 21 99.9605 21C83.9431 21 70.9655 33.8866 70.9655 49.7918C70.9655 59.3929 75.7005 67.9027 82.9844 73.1386C82.9376 73.1619 82.8908 73.1735 82.8441 73.1967C77.6063 75.3909 72.9063 78.5371 68.8727 82.554C64.8591 86.5311 61.659 91.2423 59.4493 96.4275C57.2784 101.504 56.1076 106.946 56.0003 112.46C55.9972 112.584 56.0191 112.707 56.0647 112.823C56.1103 112.938 56.1787 113.043 56.2658 113.132C56.353 113.221 56.4572 113.291 56.5722 113.339C56.6872 113.388 56.8108 113.412 56.9356 113.412H63.9505C64.465 113.412 64.8742 113.006 64.8859 112.507C65.1197 103.544 68.7441 95.1504 75.151 88.7884C81.7801 82.2057 90.5839 78.5835 99.9605 78.5835C109.337 78.5835 118.141 82.2057 124.77 88.7884C131.177 95.1504 134.801 103.544 135.035 112.507C135.047 113.018 135.456 113.412 135.97 113.412H142.985C143.11 113.412 143.234 113.388 143.349 113.339C143.464 113.291 143.568 113.221 143.655 113.132C143.742 113.043 143.811 112.938 143.856 112.823C143.902 112.707 143.924 112.584 143.921 112.46C143.804 106.911 142.646 101.512 140.472 96.4159ZM99.9605 69.7603C94.5941 69.7603 89.5433 67.6821 85.7436 63.909C81.9438 60.1359 79.851 55.1206 79.851 49.7918C79.851 44.463 81.9438 39.4476 85.7436 35.6745C89.5433 31.9014 94.5941 29.8233 99.9605 29.8233C105.327 29.8233 110.378 31.9014 114.177 35.6745C117.977 39.4476 120.07 44.463 120.07 49.7918C120.07 55.1206 117.977 60.1359 114.177 63.909C110.378 67.6821 105.327 69.7603 99.9605 69.7603Z" fill="white"/>
</svg>
