<svg width="20" height="20" viewBox="0 0 20 20" fill="none" xmlns="http://www.w3.org/2000/svg">
<path d="M19.642 6.27949C19.6313 5.47182 19.4801 4.67217 19.1952 3.91633C18.9482 3.27878 18.5709 2.69977 18.0874 2.21629C17.6039 1.73282 17.0249 1.35551 16.3874 1.10847C15.6412 0.828388 14.853 0.676941 14.0562 0.660581C13.0303 0.614726 12.705 0.601929 10.1009 0.601929C7.49671 0.601929 7.16292 0.601929 6.1445 0.660581C5.34806 0.677062 4.56019 0.828507 3.8144 1.10847C3.17675 1.35534 2.59765 1.73258 2.11415 2.21608C1.63065 2.69958 1.25341 3.27868 1.00654 3.91633C0.725898 4.66189 0.57478 5.44994 0.559719 6.24643C0.513863 7.27338 0.5 7.59864 0.5 10.2028C0.5 12.807 0.5 13.1397 0.559719 14.1592C0.575715 14.9569 0.726079 15.7439 1.00654 16.4914C1.25382 17.1289 1.63135 17.7077 2.11501 18.191C2.59867 18.6743 3.17782 19.0514 3.81546 19.2982C4.55921 19.5895 5.34723 19.7518 6.14557 19.7781C7.17252 19.8239 7.49778 19.8378 10.1019 19.8378C12.7061 19.8378 13.0399 19.8378 14.0583 19.7781C14.8551 19.7624 15.6434 19.6113 16.3895 19.3313C17.0269 19.0839 17.6057 18.7065 18.0892 18.2231C18.5726 17.7397 18.95 17.1608 19.1973 16.5234C19.4778 15.7769 19.6282 14.9899 19.6442 14.1912C19.69 13.1653 19.7039 12.84 19.7039 10.2348C19.7018 7.63063 19.7018 7.30004 19.642 6.27949ZM10.0945 15.1275C7.37087 15.1275 5.16447 12.9211 5.16447 10.1975C5.16447 7.47387 7.37087 5.26747 10.0945 5.26747C11.402 5.26747 12.656 5.78688 13.5805 6.71143C14.5051 7.63599 15.0245 8.88995 15.0245 10.1975C15.0245 11.505 14.5051 12.759 13.5805 13.6835C12.656 14.6081 11.402 15.1275 10.0945 15.1275ZM15.2207 6.2347C15.0697 6.23484 14.9201 6.2052 14.7806 6.14748C14.6411 6.08976 14.5143 6.00508 14.4075 5.89831C14.3007 5.79153 14.2161 5.66474 14.1583 5.5252C14.1006 5.38567 14.071 5.23612 14.0711 5.08511C14.0711 4.93421 14.1008 4.7848 14.1586 4.64539C14.2163 4.50598 14.301 4.37931 14.4077 4.27261C14.5144 4.16591 14.641 4.08127 14.7804 4.02352C14.9199 3.96578 15.0693 3.93606 15.2202 3.93606C15.3711 3.93606 15.5205 3.96578 15.6599 4.02352C15.7993 4.08127 15.926 4.16591 16.0327 4.27261C16.1394 4.37931 16.224 4.50598 16.2818 4.64539C16.3395 4.7848 16.3692 4.93421 16.3692 5.08511C16.3692 5.72069 15.8552 6.2347 15.2207 6.2347Z" fill="#0055B8"/>
<path d="M10.0945 13.3999C11.8631 13.3999 13.2969 11.9661 13.2969 10.1975C13.2969 8.42882 11.8631 6.99505 10.0945 6.99505C8.32583 6.99505 6.89205 8.42882 6.89205 10.1975C6.89205 11.9661 8.32583 13.3999 10.0945 13.3999Z" fill="#0055B8"/>
</svg>
