<svg width="20" height="20" viewBox="0 0 20 20" fill="none" xmlns="http://www.w3.org/2000/svg">
<path d="M18.115 0.601929H1.68114C0.91619 0.601929 0.296143 1.22198 0.296143 1.98693V18.4208C0.296143 19.1858 0.91619 19.8058 1.68114 19.8058H18.115C18.88 19.8058 19.5 19.1858 19.5 18.4208V1.98693C19.5 1.22198 18.88 0.601929 18.115 0.601929V0.601929ZM7.10787 15.1174H4.76936V8.08191H7.10787V15.1174ZM5.93869 7.12122H5.92345C5.13872 7.12122 4.6312 6.58102 4.6312 5.90588C4.6312 5.21551 5.15426 4.69026 5.95422 4.69026C6.75419 4.69026 7.24648 5.21551 7.26171 5.90588C7.26171 6.58102 6.75419 7.12122 5.93869 7.12122ZM15.54 15.1174H13.2018V11.3536C13.2018 10.4077 12.8632 9.76257 12.0171 9.76257C11.3711 9.76257 10.9864 10.1977 10.8173 10.6178C10.7555 10.7681 10.7404 10.9782 10.7404 11.1884V15.1174H8.40203C8.40203 15.1174 8.43265 8.74196 8.40203 8.08191H10.7404V9.07806C11.0512 8.59866 11.6072 7.91679 12.8479 7.91679C14.3864 7.91679 15.54 8.92231 15.54 11.0832V15.1174Z" fill="#0055B8"/>
</svg>
