<svg width="89" height="35" viewBox="0 0 89 35" fill="none" xmlns="http://www.w3.org/2000/svg">
<g clip-path="url(#clip0_3_2111)" filter="url(#filter0_d_3_2111)">
<path d="M37.2366 20.8402H34.1248V7.63306H40.5655V10.7449H37.2366V20.8402Z" fill="#0055B8"/>
<path d="M24.8254 7.12646C28.5885 7.12646 31.6641 10.2021 31.6641 13.9652C31.6641 17.7284 28.5885 20.804 24.8254 20.804C21.0622 20.804 17.9866 17.7646 17.9866 13.9652C17.9866 10.2021 21.0622 7.12646 24.8254 7.12646ZM24.8254 17.9455C26.9964 17.9455 28.8056 16.1725 28.8056 13.9652C28.8056 11.7942 27.0326 9.985 24.8254 9.985C22.6543 9.985 20.8451 11.758 20.8451 13.9652C20.8451 16.1725 22.6181 17.9455 24.8254 17.9455Z" fill="#0055B8"/>
<path d="M13.4275 7.63306H16.7564V10.7449H13.4275V20.8402H10.3157V3.61664H13.4275V7.63306Z" fill="#0055B8"/>
<path d="M60.9373 3.65283V7.63307H64.2662V10.7449H60.9373V17.7646H64.2662V20.8402H57.8254V3.65283H60.9373Z" fill="#0055B8"/>
<path d="M48.526 7.12646C52.2892 7.12646 55.3648 10.2021 55.3648 13.9652C55.3648 17.7284 52.2892 20.804 48.526 20.804C44.7629 20.804 41.6873 17.7284 41.6873 13.9652C41.6873 10.2021 44.7629 7.12646 48.526 7.12646ZM48.526 17.9455C50.6971 17.9455 52.5063 16.1725 52.5063 13.9652C52.5063 11.7942 50.7333 9.985 48.526 9.985C46.3188 9.985 44.5458 11.758 44.5458 13.9652C44.582 16.1725 46.355 17.9455 48.526 17.9455Z" fill="#0055B8"/>
<path d="M72.4438 7.12646C76.2069 7.12646 79.2825 10.2021 79.2825 13.9652C79.2825 17.7284 76.2069 20.804 72.4438 20.804C68.6806 20.804 65.605 17.7284 65.605 13.9652C65.605 10.2021 68.6806 7.12646 72.4438 7.12646ZM72.4438 17.9455C74.6148 17.9455 76.424 16.1725 76.424 13.9652C76.424 11.7942 74.651 9.985 72.4438 9.985C70.2365 9.985 68.4635 11.758 68.4635 13.9652C68.4997 16.1725 70.2727 17.9455 72.4438 17.9455Z" fill="#0055B8"/>
</g>
<defs>
<filter id="filter0_d_3_2111" x="0.907715" y="0" width="88" height="34.4078" filterUnits="userSpaceOnUse" color-interpolation-filters="sRGB">
<feFlood flood-opacity="0" result="BackgroundImageFix"/>
<feColorMatrix in="SourceAlpha" type="matrix" values="0 0 0 0 0 0 0 0 0 0 0 0 0 0 0 0 0 0 127 0" result="hardAlpha"/>
<feOffset dy="4"/>
<feGaussianBlur stdDeviation="2"/>
<feComposite in2="hardAlpha" operator="out"/>
<feColorMatrix type="matrix" values="0 0 0 0 0 0 0 0 0 0 0 0 0 0 0 0 0 0 0.25 0"/>
<feBlend mode="normal" in2="BackgroundImageFix" result="effect1_dropShadow_3_2111"/>
<feBlend mode="normal" in="SourceGraphic" in2="effect1_dropShadow_3_2111" result="shape"/>
</filter>
<clipPath id="clip0_3_2111">
<rect width="80" height="26.4078" fill="white" transform="translate(4.90771)"/>
</clipPath>
</defs>
</svg>
