<svg width="24" height="24" viewBox="0 0 24 24" fill="none" xmlns="http://www.w3.org/2000/svg">
<path d="M18.958 17.0601H17.9848C17.6833 15.9259 16.4764 14.9776 14.8067 14.4685L14.7378 15.7187C15.6884 16.0656 16.3839 16.551 16.6853 17.0826H15.9898C15.6647 17.0826 15.387 17.3372 15.387 17.6615C15.387 17.9859 15.6647 18.2629 15.9898 18.2629H16.6853C16.1987 19.1426 14.5752 19.9524 12.3952 20.0672V19.4658C12.3952 19.1426 12.1174 18.8644 11.7923 18.8644C11.4683 18.8644 11.1894 19.1426 11.1894 19.4658V20.0672C9.00932 19.9524 7.38583 19.1426 6.87553 18.2629H7.57212C7.89614 18.2629 8.17499 18.0084 8.17499 17.6615C8.17499 17.3372 7.91984 17.0826 7.57212 17.0826H6.87553C7.17697 16.551 7.87356 16.0656 8.82417 15.7187L8.75417 14.4922C7.08439 15.0013 5.87863 15.9496 5.5772 17.0826H4.60288C4.27886 17.0826 4 17.3372 4 17.6615C4 17.9859 4.27886 18.2629 4.60288 18.2629H5.5772C6.0175 19.8825 8.29016 21.1316 11.1894 21.2701V21.9188C11.1894 22.2421 11.4445 22.5203 11.7923 22.5203C12.1174 22.5203 12.3952 22.2657 12.3952 21.9188V21.2701C15.2944 21.1316 17.567 19.8825 18.0074 18.2629H18.9817C19.3057 18.2629 19.5845 18.0084 19.5845 17.6615C19.5608 17.3372 19.3057 17.0601 18.958 17.0601Z" fill="#0055B8"/>
<path d="M8.61529 11.3465C8.98673 11.4152 9.38074 11.485 9.79734 11.5312L10.0762 17.1761C10.0999 17.4543 10.3314 17.6615 10.6091 17.6615H13.1143C13.3921 17.6615 13.6246 17.4543 13.6472 17.1761L13.9023 11.5312C14.2964 11.485 14.7141 11.4152 15.0855 11.3465C15.3407 11.3003 15.5032 11.0458 15.4795 10.7676L15.2244 8.06113C15.1318 7.15898 14.5289 6.39537 13.7172 6.04847C13.1606 6.37172 12.5114 6.55755 11.816 6.55755C11.1194 6.55755 10.4702 6.37172 9.93734 6.04847C9.14818 6.39537 8.5453 7.15898 8.43015 8.06113L8.17499 10.7676C8.17499 11.0458 8.33643 11.3003 8.61529 11.3465Z" fill="#0055B8"/>
<path d="M13.8315 2.85973C13.8315 4.163 12.7724 5.2195 11.466 5.2195C10.1596 5.2195 9.10059 4.163 9.10059 2.85973C9.10059 1.55647 10.1596 0.499962 11.466 0.499962C12.7724 0.499962 13.8315 1.55647 13.8315 2.85973Z" fill="#0055B8"/>
</svg>
