<svg width="20" height="20" viewBox="0 0 20 20" fill="none" xmlns="http://www.w3.org/2000/svg">
<path d="M19.9077 4.05408C19.2015 4.36702 18.4429 4.57846 17.6453 4.67403C18.4683 4.18162 19.0839 3.40662 19.3775 2.49365C18.6043 2.95289 17.7581 3.27615 16.8757 3.44936C16.2823 2.81577 15.4963 2.39582 14.6398 2.2547C13.7832 2.11358 12.9041 2.2592 12.1388 2.66894C11.3735 3.07868 10.7649 3.72962 10.4074 4.52069C10.05 5.31177 9.96372 6.19873 10.162 7.04386C8.5954 6.9652 7.06283 6.55801 5.66377 5.84871C4.26471 5.13942 3.03042 4.14387 2.04101 2.92668C1.7027 3.51026 1.50818 4.18687 1.50818 4.90746C1.5078 5.55615 1.66755 6.19491 1.97324 6.76706C2.27894 7.33921 2.72114 7.82706 3.2606 8.18733C2.63497 8.16742 2.02314 7.99837 1.47604 7.69425V7.74499C1.47598 8.65481 1.79069 9.53664 2.36678 10.2408C2.94287 10.945 3.74486 11.4282 4.63665 11.6084C4.05628 11.7655 3.4478 11.7886 2.85717 11.6761C3.10878 12.4589 3.5989 13.1435 4.25891 13.634C4.91892 14.1244 5.71578 14.3962 6.53793 14.4113C5.14228 15.5069 3.41866 16.1012 1.64435 16.0986C1.33004 16.0987 1.01601 16.0803 0.703857 16.0436C2.50489 17.2016 4.60142 17.8162 6.7426 17.8138C13.9908 17.8138 17.9532 11.8106 17.9532 6.60406C17.9532 6.43491 17.949 6.26406 17.9413 6.09491C18.7121 5.53753 19.3774 4.84732 19.9061 4.05662L19.9077 4.05408V4.05408Z" fill="#0055B8"/>
</svg>
