<svg width="24" height="24" viewBox="0 0 24 24" fill="none" xmlns="http://www.w3.org/2000/svg">
<path d="M9.5 8.38655C9.5 5.56641 6.995 3.22439 6.885 3.1526C6.71963 3.03798 6.5246 2.97672 6.325 2.97672C6.1254 2.97672 5.93037 3.03798 5.765 3.1526C5.655 3.23465 3 5.56641 3 8.38655C3 9.27049 3.34241 10.1182 3.9519 10.7433C4.5614 11.3683 5.38805 11.7194 6.25 11.7194C7.11195 11.7194 7.9386 11.3683 8.5481 10.7433C9.15759 10.1182 9.5 9.27049 9.5 8.38655ZM6.25 9.66843C5.91848 9.66843 5.60054 9.53338 5.36612 9.29298C5.1317 9.05258 5 8.72653 5 8.38655C5.08229 7.41425 5.53065 6.51305 6.25 5.87406C6.97364 6.50959 7.42296 7.41271 7.5 8.38655C7.5 8.72653 7.3683 9.05258 7.13388 9.29298C6.89946 9.53338 6.58152 9.66843 6.25 9.66843ZM12.32 10.4782C12.32 10.4782 11.9596 10.3023 11.76 10.3023C11.5604 10.3023 11.3654 10.3636 11.2 10.4782C11.2 10.4782 7 13.8422 7 18.1289C7 19.4208 7.50045 20.6598 8.39124 21.5733C9.28204 22.4868 10.4902 23 11.75 23C13.0098 23 14.218 22.4868 15.1088 21.5733C15.9996 20.6598 16.5 19.4208 16.5 18.1289C16.5 13.7705 12.32 10.4782 12.32 10.4782ZM11.75 20.949C11.3889 20.949 11.0313 20.876 10.6976 20.7343C10.364 20.5926 10.0608 20.3849 9.80546 20.123C9.5501 19.8611 9.34753 19.5502 9.20933 19.2081C9.07113 18.8659 9 18.4992 9 18.1289C9 15.7599 10.81 13.8525 11.76 13.0013C12.7 13.8115 14.5 15.6984 14.5 18.1289C14.5 18.4992 14.4289 18.8659 14.2907 19.2081C14.1525 19.5502 13.9499 19.8611 13.6945 20.123C13.4392 20.3849 13.136 20.5926 12.8024 20.7343C12.4687 20.876 12.1111 20.949 11.75 20.949ZM18.56 2.17588C18.3946 2.06126 18.1996 2 18 2C17.8004 2 17.6054 2.06126 17.44 2.17588C17.3 2.27843 14 5.10493 14 8.64293C14 9.73085 14.4214 10.7742 15.1716 11.5435C15.9217 12.3128 16.9391 12.7449 18 12.7449C19.0609 12.7449 20.0783 12.3128 20.8284 11.5435C21.5786 10.7742 22 9.73085 22 8.64293C22 5.06391 18.7 2.26818 18.56 2.17588ZM18 10.6939C17.4696 10.6939 16.9609 10.4779 16.5858 10.0932C16.2107 9.70857 16 9.18689 16 8.64293C16.0685 7.90243 16.2808 7.18346 16.6242 6.52832C16.9677 5.87317 17.4355 5.29508 18 4.82805C18.5666 5.29309 19.0359 5.8707 19.3795 6.52623C19.7232 7.18176 19.9343 7.90172 20 8.64293C20 9.18689 19.7893 9.70857 19.4142 10.0932C19.0391 10.4779 18.5304 10.6939 18 10.6939Z" fill="#0055B8"/>
</svg>
